<svg id="Capa_1" enable-background="new 0 0 512 512" height="512" viewBox="0 0 512 512" width="512" xmlns="http://www.w3.org/2000/svg"><g><path d="m487.045 257.326c0 137.04-88.991 231.618-224.362 238.368-4.29.21-5.868 6.081-10.208 6.081-7.61 0-11.626 9.895-19.066 9.245h-.01c-130.799-11.45-233.399-121.25-233.399-255.02 0-141.38 114.62-256 256-256 135.12 0 245.8 104.69 255.33 237.38.45 6.15-24.285 13.686-24.285 19.946z" fill="#ffd064"/><g><path d="m386.243 201.672c0-21.216 6.396-43.192.18-62.336-6.442-19.841-24.751-33.813-36.771-50.329-12.139-16.68-19.853-38.364-36.533-50.503-16.515-12.019-39.46-12.732-59.301-19.174-19.143-6.215-38.031-19.33-59.247-19.33s-40.103 13.115-59.247 19.331c-19.841 6.442-42.786 7.155-59.301 19.174-16.68 12.139-24.394 33.823-36.533 50.503-12.02 16.515-30.329 30.487-36.772 50.328-6.216 19.144.18 41.12.18 62.336s-6.396 43.192-.18 62.336c6.442 19.841 24.751 33.813 36.771 50.329 12.139 16.68 19.853 38.364 36.533 50.503 16.515 12.019 39.46 12.732 59.301 19.174 19.144 6.216 38.031 19.331 59.248 19.331 21.216 0 40.104-13.115 59.247-19.331 19.841-6.442 42.786-7.155 59.301-19.174 16.68-12.139 24.394-33.823 36.533-50.503 12.019-16.515 30.328-30.487 36.771-50.328 6.216-19.145-.18-41.12-.18-62.337z" fill="#da8059"/><path d="m160.108 384.012c14.01 5.38 27.85 15.91 42.95 18.65-2.79.44-5.62.68-8.49.68-21.22 0-40.1-13.11-59.25-19.33-19.84-6.44-42.78-7.15-59.3-19.17-16.68-12.14-24.39-33.82-36.53-50.5-12.02-16.52-30.33-30.49-36.77-50.33-6.22-19.15.18-41.12.18-62.34 0-21.21-6.4-43.19-.18-62.33 6.44-19.84 24.75-33.82 36.77-50.33 12.14-16.68 19.85-38.37 36.53-50.5 16.52-12.02 39.46-12.74 59.3-19.18 19.15-6.21 38.03-19.33 59.25-19.33 2.87 0 5.7.24 8.49.68-15.1 2.75-28.94 13.28-42.95 18.65-16.78 6.44-36.2 7.16-50.17 19.18-14.12 12.13-20.64 33.82-30.92 50.5-10.17 16.51-25.66 30.49-31.11 50.33-5.26 19.14.15 41.12.15 62.33 0 21.22-5.41 43.19-.15 62.34 5.45 19.84 20.94 33.81 31.11 50.33 10.28 16.68 16.8 38.36 30.92 50.5 13.971 12.02 33.39 12.73 50.17 19.17z" fill="#d56b3d"/><circle cx="87.372" cy="177.24" fill="#544f57" r="24.433"/><path d="m91.058 201.39c-1.21.19-2.44.28-3.69.28-13.49 0-24.43-10.94-24.43-24.43 0-13.5 10.94-24.44 24.43-24.44 1.25 0 2.48.09 3.69.28-11.74 1.78-20.74 11.92-20.74 24.16s9 22.37 20.74 24.15z" fill="#454045"/><circle cx="154.827" cy="286.561" fill="#544f57" r="18.25"/><path d="m157.58 304.6c-.904.142-1.822.209-2.756.209-10.076 0-18.248-8.171-18.248-18.248 0-10.084 8.172-18.255 18.248-18.255.934 0 1.852.067 2.756.209-8.769 1.33-15.492 8.904-15.492 18.046.001 9.143 6.723 16.709 15.492 18.039z" fill="#454045"/><circle cx="264.415" cy="184.461" fill="#544f57" r="17.213"/><path d="m268.202 201.251c-1.22.28-2.49.42-3.79.42-9.5 0-17.21-7.7-17.21-17.21s7.71-17.21 17.21-17.21c1.3 0 2.57.14 3.79.42-7.68 1.72-13.42 8.58-13.42 16.79s5.74 15.07 13.42 16.79z" fill="#454045"/><g fill="#d56b3d"><circle cx="231.097" cy="211.306" r="8.887"/><circle cx="152.123" cy="94.755" r="8.887"/><circle cx="123.76" cy="75.776" r="15.139"/><circle cx="96.665" cy="290.612" r="15.139"/><circle cx="168.525" cy="153.04" r="18.115"/><circle cx="307.661" cy="122.616" r="12.31"/></g><circle cx="217.391" cy="69.013" fill="#544f57" r="16.856"/><path d="m220.875 85.513c-1.12.24-2.29.36-3.48.36-9.31 0-16.86-7.55-16.86-16.86s7.55-16.85 16.86-16.85c1.19 0 2.36.12 3.48.36-7.65 1.59-13.39 8.37-13.39 16.49 0 8.119 5.74 14.9 13.39 16.5z" fill="#454045"/></g><g><path d="m512 256c0 141.38-114.62 256-256 256-7.61 0-15.15-.33-22.59-.98-12.09-12.47-19.21-30.2-29.5-44.34-12.02-16.52-30.32-30.49-36.77-50.33-6.21-19.15.18-41.12.18-62.34 0-21.21-6.39-43.19-.18-62.33 6.45-19.84 24.75-33.82 36.77-50.33 12.14-16.68 19.86-38.37 36.54-50.5 16.51-12.02 39.46-12.74 59.3-19.18 19.14-6.21 38.03-19.33 59.25-19.33 21.21 0 40.1 13.12 59.24 19.33 19.84 6.44 42.79 7.16 59.3 19.18 15.38 11.19 23.15 30.51 33.79 46.53.45 6.15.67 12.36.67 18.62z" fill="#da8059"/><path d="m367.48 153.02c-15.1 2.75-28.94 13.28-42.95 18.65-16.78 6.44-36.2 7.16-50.17 19.18-14.12 12.13-20.64 33.82-30.92 50.5-10.17 16.51-25.66 30.49-31.11 50.33-5.26 19.14.15 41.12.15 62.33 0 21.22-5.41 43.19-.15 62.34 5.45 19.84 20.94 33.81 31.11 50.33 8.87 14.39 14.94 32.51 25.51 45-4.29.21-8.61.32-12.95.32-7.61 0-15.15-.33-22.59-.98h-.01c-12.09-12.47-19.2-30.2-29.49-44.34-12.02-16.52-30.33-30.49-36.77-50.33-6.22-19.15.18-41.12.18-62.34 0-21.21-6.4-43.19-.18-62.33 6.44-19.84 24.75-33.82 36.77-50.33 12.14-16.68 19.85-38.37 36.53-50.5 16.52-12.02 39.46-12.74 59.3-19.18 19.15-6.21 38.03-19.33 59.25-19.33 2.87 0 5.7.24 8.49.68z" fill="#d56b3d"/><circle cx="438.191" cy="262.644" fill="#d56b3d" r="34.534"/><circle cx="428.84" cy="262.644" fill="#544f57" r="34.534"/><path d="m434.266 296.754c-1.77.29-3.58.43-5.43.43-19.07 0-34.53-15.46-34.53-34.54 0-19.07 15.46-34.53 34.53-34.53 1.85 0 3.66.15 5.43.43-16.49 2.6-29.1 16.88-29.1 34.1 0 17.23 12.61 31.51 29.1 34.11z" fill="#454045"/><circle cx="238.511" cy="354.012" fill="#d56b3d" r="34.534"/><circle cx="231.097" cy="354.012" fill="#544f57" r="34.534"/><path d="m238.743 387.702c-2.46.56-5.01.85-7.64.85-19.08 0-34.54-15.47-34.54-34.54s15.46-34.53 34.54-34.53c2.63 0 5.18.29 7.64.84-15.41 3.48-26.91 17.24-26.91 33.69s11.5 30.22 26.91 33.69z" fill="#454045"/><circle cx="357.383" cy="442.952" fill="#544f57" r="24.433"/><path d="m361.069 467.102c-1.21.19-2.44.28-3.69.28-13.49 0-24.43-10.94-24.43-24.43 0-13.5 10.94-24.44 24.43-24.44 1.25 0 2.48.09 3.69.28-11.74 1.78-20.74 11.92-20.74 24.16s9 22.37 20.74 24.15z" fill="#454045"/><circle cx="428.84" cy="336.801" fill="#544f57" r="17.213"/><path d="m432.627 353.591c-1.22.28-2.49.42-3.79.42-9.5 0-17.21-7.7-17.21-17.21s7.71-17.21 17.21-17.21c1.3 0 2.57.14 3.79.42-7.68 1.72-13.42 8.58-13.42 16.79s5.74 15.07 13.42 16.79z" fill="#454045"/><g fill="#d56b3d"><circle cx="316.548" cy="323.893" r="8.887"/><circle cx="328.203" cy="295.514" r="15.139"/><circle cx="261.09" cy="442.952" r="15.139"/><circle cx="376.011" cy="211.306" r="12.31"/></g><circle cx="313.064" cy="240.466" fill="#544f57" r="16.856"/><path d="m316.548 256.966c-1.12.24-2.29.36-3.48.36-9.31 0-16.86-7.55-16.86-16.86s7.55-16.85 16.86-16.85c1.19 0 2.36.12 3.48.36-7.65 1.59-13.39 8.37-13.39 16.49s5.74 14.9 13.39 16.5z" fill="#454045"/></g><g fill="#da8059"><g><circle cx="422.946" cy="132.085" r="11.32"/><circle cx="403.657" cy="100.511" r="11.32"/><circle cx="434.266" cy="103.642" r="11.32"/></g><circle cx="100.485" cy="407.2" r="11.32"/><circle cx="124.006" cy="442.947" r="11.32"/></g></g></svg>