<svg id="Capa_1" enable-background="new 0 0 501 501" height="512" viewBox="0 0 501 501" width="512" xmlns="http://www.w3.org/2000/svg"><path d="m490 256c0 135.31-109.69 245-245 245s-245-109.69-245-245 109.69-245 245-245 245 109.69 245 245z" fill="#56bcd6"/><path d="m92.477 212.438 71.839 129.478c-3.235 2.239-6.611 4.341-10.124 6.29s-7.083 3.702-10.695 5.261l-38.058-68.593c-.641.56-1.366 1.045-2.17 1.433-10.949 5.281-26.281 6.334-41.929 1.854-19.974-5.719-34.74-18.817-38.559-32.509 10.486-9.596 29.946-12.895 49.921-7.176 5.984 1.713 11.5 4.089 16.395 6.944l-17.439-31.431c-.641.561-1.366 1.045-2.17 1.433-10.949 5.28-26.282 6.334-41.929 1.854-9.401-2.692-17.648-7.019-24.144-12.272 1.697-10.074 4.009-19.938 6.895-29.554 8.695-1.328 18.588-.729 28.61 2.141 5.984 1.713 11.5 4.089 16.395 6.944l-9.156-16.502c-9.027-4.225-17.888-11.496-25.285-21.145 7.469-16.865 16.786-32.729 27.693-47.336 3.054 3.787 5.881 7.968 8.396 12.5 8.383 15.108 11.622 31.103 10.016 44.429l9.156 16.503c.168-5.665 1.071-11.603 2.784-17.587 5.719-19.975 18.817-34.74 32.509-38.559 9.596 10.486 12.895 29.946 7.176 49.921-4.48 15.647-13.489 28.099-23.764 34.594-.753.479-1.548.837-2.363 1.085z" fill="#3691bb"/><path d="m427.016 420c-44.841 49.736-109.777 81-182.016 81-62.816 0-120.111-23.64-163.473-62.51-7.243-6.493-2.693-18.49 7.034-18.49z" fill="#012d4e"/><path d="m129 140.046 133.735-133.735c8.414-8.414 22.056-8.414 30.47 0l114.611 114.611c-2.123 6.489-4.491 12.867-7.093 19.124z" fill="#f5dc90"/><path d="m293.205 6.311c-.82-.82-1.689-1.559-2.598-2.219-5.948 5.416-11.647 11.101-17.079 17.035 3.2 1.667 5.386 5.015 5.386 8.874 0 5.523-4.477 10-10 10-3.28 0-6.191-1.579-8.015-4.019-23.729 30.086-41.05 65.46-49.906 104.065h189.73c2.602-6.257 4.97-12.635 7.093-19.124zm-45.958 123.689c-5.523 0-10-4.477-10-10s4.477-10 10-10 10 4.477 10 10-4.477 10-10 10zm46.667-65c-5.523 0-10-4.477-10-10s4.477-10 10-10 10 4.477 10 10-4.477 10-10 10zm45 65c-5.523 0-10-4.477-10-10s4.477-10 10-10 10 4.477 10 10-4.477 10-10 10z" fill="#fdf7bd"/><path d="m439 293.398c0 42.496-8.097 82.328-22.236 116.602h-285.528c-14.139-34.274-22.236-74.106-22.236-116.602 0-41.796 7.832-81.015 21.542-114.904-6.807-2.813-11.749-9.29-12.337-17.066-.136-1.798-.205-3.608-.205-5.428 0-7.551 1.184-14.916 3.435-22.014 2.638-8.322 10.354-13.986 19.083-13.986h266.964c8.729 0 16.446 5.664 19.083 13.986 2.251 7.098 3.435 14.463 3.435 22.014 0 1.82-.069 3.63-.205 5.428-.589 7.776-5.53 14.253-12.337 17.066 13.71 33.889 21.542 73.108 21.542 114.904z" fill="#f4aa39"/><path d="m427.165 380c-2.964 10.393-6.446 20.414-10.4 30h-285.529c-14.139-34.274-22.236-74.106-22.236-116.602 0-41.796 7.833-81.015 21.542-114.904-6.807-2.813-11.749-9.29-12.338-17.066-.135-1.798-.204-3.608-.204-5.428 0-7.551 1.184-14.916 3.435-22.015 2.638-8.321 10.354-13.985 19.083-13.985h39c-1.455 0-3.049 1.074-4.696 2.871-12.997 14.18-2.41 37.129 16.826 37.129h167.352c5.743 0 10.355 4.841 9.978 10.665-.344 5.315-4.995 9.335-10.321 9.335h-168.07c-12.8 0-22.826 10.887-21.925 23.655 6.802 96.342 87.756 176.345 190.255 176.345z" fill="#d98800"/><path d="m415.311 270.646-21.273 28.973c5.216-2.213 10.989-3.873 17.141-4.815 20.537-3.147 39.425 2.586 48.613 13.431-5.519 13.099-21.823 24.225-42.36 27.372-16.088 2.466-31.165-.519-41.358-7.141-.749-.486-1.406-1.059-1.971-1.696l-46.427 63.23c-3.386-2.004-6.706-4.193-9.944-6.571-3.239-2.378-6.322-4.889-9.248-7.52l46.426-63.23c-.777-.348-1.52-.804-2.208-1.373-9.371-7.743-16.733-21.233-19.198-37.322-3.147-20.537 2.586-39.424 13.431-48.613 13.099 5.519 24.225 21.823 27.372 42.36.943 6.153 1.088 12.158.538 17.798l21.274-28.975c-.777-.348-1.52-.804-2.208-1.373-9.371-7.743-16.733-21.233-19.198-37.321-3.147-20.538 2.586-39.425 13.431-48.613 13.099 5.519 24.225 21.822 27.372 42.36.943 6.153 1.088 12.157.538 17.798l11.17-15.213c.092-13.423 5.327-28.879 15.553-42.807 14.717-20.044 35.553-31.176 52.507-29.773 6.415 15.756 2.033 38.969-12.684 59.013-10.226 13.927-23.405 23.551-36.184 27.658l-11.169 15.211c5.216-2.213 10.989-3.872 17.141-4.815 20.537-3.147 39.425 2.585 48.613 13.431-5.519 13.099-21.823 24.225-42.36 27.373-16.088 2.465-31.165-.519-41.358-7.142-.75-.487-1.408-1.059-1.972-1.695z" fill="#c3573a"/><path d="m482.599 200.625c-4.629 6.305-9.865 11.727-15.394 16.156-5.448-.501-10.102-4.835-10.647-10.57-1.378-14.483 3.808-32.13 15.337-47.833 4.791-6.526 10.231-12.106 15.975-16.617 2.53-.294 5.01-.348 7.413-.149 6.415 15.755 2.033 38.969-12.684 59.013zm-94.456-31.378c-1.537 1.302-2.971 2.799-4.292 4.468-.728 6.059-.645 12.57.38 19.256 2.466 16.089 9.827 29.579 19.199 37.322.037.031.074.061.112.091 5.049 4.049 12.671.396 12.815-6.075.091-4.11-.177-8.369-.841-12.702-3.148-20.538-14.274-36.842-27.373-42.36zm112.857 82.863c-1.302-1.537-2.799-2.971-4.468-4.292-6.059-.728-12.57-.645-19.256.38-16.089 2.466-29.579 9.827-37.322 19.199-3.066 3.711-2.878 9.021.045 12.536 5.883.65 12.18.54 18.64-.45 20.539-3.148 36.842-14.274 42.361-27.373zm-154.065-26.739c-1.537 1.302-2.971 2.799-4.292 4.468-.728 6.059-.645 12.57.38 19.256 2.466 16.089 9.827 29.579 19.199 37.322.037.031.074.061.112.091 5.049 4.049 12.671.396 12.815-6.075.091-4.11-.177-8.369-.841-12.702-3.148-20.538-14.274-36.841-27.373-42.36zm112.857 82.863c-1.302-1.537-2.799-2.971-4.468-4.292-6.059-.728-12.57-.645-19.256.38-16.089 2.466-29.579 9.827-37.322 19.199-3.066 3.711-2.878 9.021.045 12.536 5.883.65 12.18.54 18.64-.45 20.538-3.148 36.842-14.274 42.361-27.373z" fill="#f16b38"/><path d="m368.994 396.491c.004.554.006 1.108.005 1.661-.03 23.125-18.805 41.848-41.929 41.848h-243.843c-24.527-21.581-44.704-47.988-59.046-77.737 16.74-73.127 85.537-113.603 168.201-114.654 96.234-1.224 175.844 52.643 176.612 148.882z" fill="#6d4336"/><path d="m369 398.122c-.028 23.136-18.794 41.878-41.93 41.878h-196.222c-24.469 0-44.6-20.02-44.642-44.488 0-.108 0-.216 0-.324 0-12.636 1.262-24.583 3.668-35.818 1.392-6.5 9.675-8.203 13.693-2.908 2.017 2.658 4.151 4.084 6.359 4.084 9.827 0 18.188-28.234 21.297-67.658.442-5.608 3.105-10.829 7.422-14.435.124-.103.248-.206.372-.309 13.227-10.977 33.267-2.533 34.524 14.609 2.197 29.956 7.638 67.793 21.103 67.793 12.477 0 22.591-45.515 22.591-101.661 0-3.493-.039-6.945-.116-10.348 13.773 1.228 27.061 3.644 39.661 7.205-.007 1.044-.011 2.091-.011 3.142 0 56.146 10.115 101.661 22.591 101.661 11.246 0 20.573-36.98 22.304-85.393 40.537 24.925 66.887 66.17 67.328 121.338.007.545.008 1.089.008 1.632zm-180 51.878c-5.523 0-10 4.477-10 10s4.477 10 10 10 10-4.477 10-10-4.477-10-10-10z" fill="#925b44"/><path d="m459 445.798c-.018 13.177-10.716 23.847-23.894 23.847h-150.925c-13.099 0-23.847-10.546-23.891-23.645 0-.112-.001-.225-.001-.337 0-54.441 43.788-84.96 98.066-85.65 54.838-.697 100.203 29.999 100.641 84.839.003.315.004.63.004.946zm-220 24.202c-5.523 0-10 4.477-10 10s4.477 10 10 10 10-4.477 10-10-4.477-10-10-10z" fill="#f5dc90"/><path d="m405.764 419.345c-.66 3.493-4.027 5.789-7.52 5.129-.568-.107-1.104-.286-1.601-.525-2.561-1.233-4.081-4.07-3.528-6.996 3.418-18.075-5.562-35.674-20.937-43.997-3.507-1.898-7.805.695-7.813 4.682-.036 18.078-9.101 35.75-25.552 45.978-1.51.938-3.257 1.176-4.861.802-1.758-.41-3.345-1.556-4.26-3.319-1.556-3-.399-6.708 2.463-8.503 13.459-8.442 19.941-23.417 19.21-38.304-.343-6.992-10.033-7.28-17.865-1.735-23.532 16.66-33.469 40.159-33.469 74.183 0 .132 0 .264.001.395.031 9.29 4.655 17.485 11.703 22.51h-27.555c-13.099 0-23.847-10.547-23.891-23.645 0-.112 0-.225 0-.337 0-48.588 34.878-78.121 80.964-84.4.033-.004 7.65-1.415 17.102-1.403 6.429.008 12.726.421 18.837 1.19 20.843 10.662 33.137 34.154 28.572 58.295z" fill="#f1ca50"/></svg>