<?xml version="1.0" encoding="iso-8859-1"?>
<!-- Generator: Adobe Illustrator 21.0.0, SVG Export Plug-In . SVG Version: 6.00 Build 0)  -->
<svg xmlns="http://www.w3.org/2000/svg" xmlns:xlink="http://www.w3.org/1999/xlink" version="1.1" id="Capa_1" x="0px" y="0px" viewBox="0 0 512 512" style="enable-background:new 0 0 512 512;" xml:space="preserve" width="512" height="512">
<g>
	<circle style="fill:#77DD00;" cx="256" cy="256" r="256"/>
	<path style="fill:#67BC00;" d="M499.15,336.254L296.169,133.273L125.482,387.507l124.416,124.416   C251.927,511.97,253.96,512,256,512C369.35,512,465.479,438.325,499.15,336.254z"/>
	<g>
		<rect x="146.296" y="210.76" style="fill:#E57500;" width="219.407" height="149.309"/>
		<rect x="256.458" y="210.76" style="fill:#984C00;" width="109.246" height="149.309"/>
		<rect x="165.431" y="275.513" style="fill:#984C00;" width="15.939" height="15.939"/>
		<rect x="189.996" y="313.386" style="fill:#984C00;" width="15.939" height="15.939"/>
		<rect x="224.825" y="282.052" style="fill:#984C00;" width="15.939" height="15.939"/>
		<rect x="302.999" y="273.289" style="fill:#703700;" width="15.939" height="15.939"/>
		<rect x="325.568" y="309.844" style="fill:#703700;" width="15.939" height="15.939"/>
		<rect x="269.622" y="313.386" style="fill:#703700;" width="15.939" height="15.939"/>
		<path style="fill:#FFDD48;" d="M395.5,343.72v22.887c0,15.923-12.958,28.881-28.881,28.881H145.381    c-15.923,0-28.881-12.958-28.881-28.881V343.72H395.5z"/>
		<rect x="146.296" y="210.76" style="fill:#984C00;" width="219.407" height="48.226"/>
		<path style="fill:#FFD9A7;" d="M311.953,171.983v15.71h-110.99v-15.71c0-30.597,24.897-55.495,55.495-55.495    C287.061,116.488,311.953,141.385,311.953,171.983z"/>
		<path style="fill:#FFC273;" d="M311.953,187.693h-55.495v-71.205c30.603,0,55.495,24.897,55.495,55.495V187.693z"/>
		<rect x="256.458" y="210.76" style="fill:#703700;" width="109.246" height="48.226"/>
		<path style="fill:#FFA820;" d="M395.5,343.72v22.887c0,15.923-12.958,28.881-28.881,28.881H256.458V343.72H395.5z"/>
		<path style="fill:#FFF3C9;" d="M332.017,199.224c0,15.378-12.669,27.884-28.238,27.884h-5.547v12.19    c0,14.647-11.918,26.565-26.565,26.565c-5.651,0-10.898-1.777-15.209-4.801c-6.861-4.806-11.356-12.768-11.356-21.764v-12.19    h-36.88c-15.568,0-28.238-12.506-28.238-27.884c0-15.372,12.669-27.878,28.238-27.878h95.557    C319.347,171.345,332.017,183.851,332.017,199.224z"/>
		<path style="fill:#FFD9A7;" d="M332.017,199.224c0,15.378-12.669,27.884-28.238,27.884h-5.547v12.19    c0,14.647-11.918,26.565-26.565,26.565c-5.651,0-10.898-1.777-15.209-4.801v-89.716h47.321    C319.347,171.345,332.017,183.851,332.017,199.224z"/>
	</g>
</g>















</svg>
