<svg id="Layer_1" enable-background="new 0 0 511.038 511.038" height="512" viewBox="0 0 511.038 511.038" width="512" xmlns="http://www.w3.org/2000/svg"><g><g><path d="m502.093 318.64c.236-.91.463-1.826.688-2.743-.222.917-.455 1.83-.688 2.743z" fill="#bfe5fe"/><path d="m255 .519c-98.131 0-158.574 55.347-158.741 55.441-3.787 17.481-10.374 42.85-10.374 61.465 0 140.833 118.763 254.972 259.596 254.972 60.017 0 115.159-27.944 158.719-62.639.178-1.087 5.8-23.477 5.8-54.239 0-140.832-114.167-255-255-255z" fill="#ebafae"/><path d="m345.459 365.198c-140.833 0-255-114.167-255-255 0-18.615 2.013-36.757 5.801-54.239-.006.005-.011.01-.017.014-58.646 46.721-96.243 118.738-96.243 199.546 0 12.929.962 25.634 2.819 38.046l295.453 213.297c99.438-17.002 179.21-91.592 203.821-188.222.233-.913.466-1.826.688-2.743.106-.436 1.068-4.522 1.418-6.139-43.559 34.695-98.724 55.44-158.74 55.44z" fill="#e08e80"/></g><g><g><path d="m321.191 1.159c-16.05 0-31.635 1.837-46.521 5.296-20.952 4.868-35.663 23.726-35.663 45.236v220.677h240.866c19.695-27.594 31.165-60.623 31.165-96.128 0-96.694-84.997-175.081-189.847-175.081z" fill="#dd3e3e"/></g><path d="m460.004 212.029h-194.773c-19.695-27.594-31.165-60.623-31.165-96.128 0-41.551 15.706-79.714 41.927-109.736-83.026 18.703-144.649 87.747-144.649 170.075 0 35.505 11.471 68.534 31.165 96.128h297.495z" fill="#bc1b2c"/><g><path d="m321.191 52.614c-44.714 0-85.461 15.665-116.141 41.367v134.093h288.037c.578-5.302.883-10.678.883-16.12 0-88.001-77.355-159.34-172.779-159.34z" fill="#fcf5ac"/></g><path d="m452.805 226.881c-17.751 0-32.879-13.125-35.101-30.735-7.054-55.919-63.772-103.86-128.909-90.441-15.471 3.187-29.959 9.02-42.961 17.156-10.01 6.264-22.564-2.744-20.109-14.294.05-.234.1-.467.151-.701 2.74-12.592-12.054-21.36-21.865-13.006-34.188 29.112-55.599 70.797-55.599 117.095 0 18.671 3.485 36.589 9.886 53.235 7.935 20.638 27.774 34.25 49.884 34.25h226.018c21.934 0 41.77-13.349 49.709-33.795 4.773-12.292 7.945-25.285 9.304-38.763h-40.408zm-220.672-34.9c1.635-3.254 3.466-6.434 5.498-9.522 13.626-20.698 34.497-34.851 58.768-39.852 38.05-7.839 75.379 16.738 83.218 54.785.021.1.041.2.061.3 3.028 15.131-8.795 29.188-24.227 29.188h-62.41c-.933-9.501 3.198-18.939 11.806-25.073 2.782-1.983 6.039-3.134 9.39-3.8 10.299-2.046 16.934-12.107 14.764-22.376-2.157-10.207-12.751-16.622-22.946-14.405-16.585 3.607-30.833 13.379-40.182 27.579-1.157 1.757-2.221 3.556-3.191 5.392-6.686 12.644-24.975 11.879-30.241-1.419-.104-.263-.207-.529-.308-.797z" fill="#f3d14c"/><path d="m430.412 178.059c-9.893-48.013-50.386-82.04-96.928-85.94 3.921 4.629 6.333 10.63 6.622 17.088.365 8.146-3.833 15.591-10.072 20.451 30.459 2.411 57.006 24.613 63.474 56.004 2.835 13.759.142 27.799-7.583 39.533s-19.556 19.756-33.316 22.591c-14.14 2.911-28.092-2.411-36.872-12.674-1.073 12.909-13.365 23.41-26.163 23.41-1.222 0-2.415-.09-3.581-.251 14.219 17.384 35.775 27.992 58.864 27.991 5.063 0 10.204-.51 15.354-1.572 23.616-4.866 43.925-18.637 57.183-38.776s17.884-44.238 13.018-67.855z" fill="#935a40"/><g fill="#6b3e2d"><path d="m251.523 170.729c13.626-20.698 34.497-34.851 58.768-39.852 8.254-1.701 16.471-1.872 24.361-.711 11.441 1.683 21.745-7.048 21.745-18.612 0-9.387-6.916-17.29-16.202-18.662-12.147-1.796-24.801-1.536-37.508 1.082-34.129 7.031-63.475 26.932-82.636 56.037s-25.84 63.928-18.808 98.056c3.806 18.474 10.727 35.789 20.351 51.373h47.404c-15.517-16.202-26.214-36.463-30.852-58.977-5-24.271-.25-49.036 13.377-69.734z"/><path d="m315.993 235.413c-3.488-3.992-6.185-8.752-7.788-14.081-2.029-6.742-.986-17.217 2.789-23.16 3.858-6.073 9.837-10.266 16.824-11.826 10.102-2.255 17.076-11.859 15.158-22.03-1.956-10.373-12.021-17.091-22.317-14.97-16.888 3.479-31.412 13.327-40.894 27.73-9.481 14.403-12.787 31.636-9.308 48.525 2.841 13.788 9.274 25.931 18.12 35.659 11.368 12.501 32.222 4.219 32.222-12.678v-.69c.001-4.611-1.772-9.006-4.806-12.479z"/></g></g><g><path d="m143.821 485.062h176.908c19.695-27.594 31.165-60.623 31.165-96.128 0-96.695-84.997-175.081-189.847-175.081-16.05 0-31.635 1.837-46.521 5.296-20.952 4.868-35.663 23.726-35.663 45.236v176.463c18.836 17.807 40.381 32.774 63.958 44.214z" fill="#6b3e2d"/><path d="m300.86 424.724h-129.899c-52.66 0-95.696-42.404-96.036-95.063-.002-.355-.003-.709-.003-1.064 0-41.551 15.706-79.714 41.927-109.736-47.546 10.71-88.066 37.935-114.02 74.704 12.645 84.523 66.766 155.48 140.993 191.498h157.038c0-.001 0-60.339 0-60.339z" fill="#513120"/><path d="m334.826 424.648c0-88.001-77.356-159.341-172.779-159.341-44.714 0-85.461 15.665-116.141 41.367 0 0 10.553 59.634 14.743 76.939 8.117 33.532 38.136 57.154 72.636 57.154h200.658c.578-5.3.883-10.676.883-16.119z" fill="#c59772"/><path d="m293.66 439.575c-17.75 0-32.879-13.125-35.101-30.735-7.054-55.919-63.772-103.86-128.909-90.441-15.471 3.187-29.959 9.02-42.961 17.156-10.01 6.264-22.564-2.744-20.109-14.294.05-.234.1-.467.151-.701 2.74-12.592-12.054-21.36-21.865-13.006-11.614 9.889-21.748 21.232-30.074 33.711 7.365 20.629 17.311 40.032 29.449 57.819l35.621 41.764c17.384 16.437 37.079 30.453 58.547 41.512l39.04 16.151c24.453 7.799 50.51 12.008 77.55 12.008 14.751 0 29.207-1.256 43.272-3.661 11.89-5.703 21.523-15.72 26.492-28.52 4.773-12.292 7.945-25.285 9.304-38.763zm-97.353 0h-62.41c-.933-9.501 3.198-18.939 11.806-25.073 2.782-1.983 6.039-3.134 9.39-3.8 10.299-2.046 16.934-12.107 14.764-22.376-2.157-10.207-12.751-16.622-22.946-14.405-16.584 3.607-30.833 13.379-40.182 27.579-1.157 1.757-2.221 3.556-3.192 5.392-6.686 12.644-24.975 11.879-30.241-1.419-.105-.265-.208-.531-.309-.798 1.635-3.254 3.466-6.434 5.498-9.521 13.626-20.698 34.497-34.851 58.768-39.852 38.05-7.839 75.379 16.738 83.218 54.785.021.1.041.2.061.3 3.03 15.132-8.793 29.188-24.225 29.188z" fill="#935a40"/><path d="m271.268 390.753c-9.893-48.013-50.386-82.04-96.928-85.94 3.92 4.629 6.333 10.63 6.622 17.088.365 8.146-3.833 15.591-10.072 20.451 30.459 2.411 57.006 24.613 63.474 56.004 2.835 13.759.142 27.799-7.583 39.533s-19.556 19.756-33.316 22.591c-14.14 2.911-28.092-2.411-36.872-12.674-1.073 12.909-13.365 23.41-26.162 23.41-1.222 0-2.415-.09-3.581-.251 3.448 4.216 7.332 8.029 11.56 11.394 12.452 6.413 25.504 11.821 39.043 16.139 2.725.301 5.481.458 8.261.458 5.063 0 10.204-.51 15.354-1.572 23.616-4.866 43.925-18.637 57.183-38.776 13.26-20.14 17.883-44.238 13.017-67.855z" fill="#fcf5ac"/><path d="m181.05 305.586c-12.147-1.796-24.801-1.536-37.508 1.082-34.129 7.031-63.476 26.932-82.636 56.037-7.492 11.38-13.066 23.636-16.668 36.381 9.651 14.141 20.691 27.254 32.919 39.157-.834-19.316 4.381-38.355 15.221-54.82 13.625-20.698 34.497-34.851 58.768-39.852 8.254-1.701 16.471-1.872 24.361-.711 11.441 1.683 21.745-7.048 21.745-18.612.001-9.387-6.916-17.289-16.202-18.662z" fill="#f3d14c"/><path d="m156.849 448.107c-3.488-3.992-6.185-8.752-7.788-14.081-2.029-6.742-.986-17.217 2.789-23.16 3.858-6.073 9.837-10.266 16.824-11.826 10.102-2.255 17.076-11.859 15.158-22.03-1.956-10.373-12.021-17.091-22.317-14.97-16.888 3.479-31.412 13.327-40.894 27.73-9.481 14.403-12.787 31.636-9.308 48.525 2.841 13.788 9.274 25.931 18.12 35.659 11.368 12.501 32.222 4.219 32.222-12.678v-.69c.001-4.611-1.772-9.006-4.806-12.479z" fill="#f3d14c"/><g fill="#ebafae"><path d="m106.542 237.433c4.95-1.804 10.034-3.429 15.258-4.852 28.955-7.885 62.143-9.866 98.64-5.885 2.877.311 5.483-1.77 5.797-4.657.315-2.886-1.77-5.482-4.657-5.797-38.002-4.145-72.657-2.019-102.999 6.317-4.093 1.125-8.102 2.372-12.038 3.72v11.154z"/><path d="m330.491 340.225c-.471-1.064-11.827-26.36-37.124-51.792-14.198-14.274-34.584-30.151-61.493-40.318.823 3.594-.403 7.737-3.685 9.688 20.961 7.869 40.173 20.474 57.455 37.777 24.035 24.064 35.124 48.659 35.233 48.905.869 1.961 2.792 3.127 4.808 3.127.711 0 1.433-.145 2.125-.451 2.656-1.175 3.856-4.281 2.681-6.936z"/></g><g><path d="m172.895 237.53c-43.832 0-81.537 7.742-135.491 47.927 5.915-7.275 13.681-15.34 23.653-23.119 14.063-10.971 30.23-19.642 48.188-25.873 2.101-.729 3.497-2.726 3.497-4.95 0-3.628-3.584-6.147-7.012-4.956-19.248 6.685-36.585 16.035-51.668 27.901-31.458 24.747-42.125 51.615-42.564 52.747-.872 2.251-.1 4.806 1.872 6.197 1.973 1.391 4.64 1.261 6.465-.317 74.408-64.224 120.658-64.71 151.263-65.033 20.65-.208 40.093 3.194 58.215 10.165 3.401 1.308 7.059-1.173 7.059-4.818 0-2.148-1.327-4.066-3.33-4.841-17.286-6.686-37.295-11.03-60.147-11.03z" fill="#e08e80"/></g></g></g></svg>