<?xml version="1.0" encoding="iso-8859-1"?>
<!-- Generator: Adobe Illustrator 19.0.0, SVG Export Plug-In . SVG Version: 6.00 Build 0)  -->
<svg version="1.1" id="Capa_1" xmlns="http://www.w3.org/2000/svg" xmlns:xlink="http://www.w3.org/1999/xlink" x="0px" y="0px"
	 viewBox="0 0 512 512" style="enable-background:new 0 0 512 512;" xml:space="preserve">
<circle style="fill:#B6E1F7;" cx="256" cy="256" r="256"/>
<path style="fill:#7FC8F1;" d="M512,256c0-7.001-0.292-13.934-0.844-20.793L396.414,120.465
	C360.922,83.703,311.135,60.833,256,60.833C148.212,60.833,60.833,148.212,60.833,256c0,55.134,22.87,104.921,59.63,140.413
	l114.743,114.743C242.066,511.708,248.999,512,256,512C397.385,512,512,397.385,512,256z"/>
<path style="fill:#FFB84D;" d="M256,60.833C148.212,60.833,60.833,148.212,60.833,256S148.212,451.167,256,451.167
	S451.167,363.788,451.167,256S363.788,60.833,256,60.833z M256,321.768c-36.322,0-65.768-29.445-65.768-65.768
	s29.445-65.768,65.768-65.768s65.768,29.445,65.768,65.768S292.323,321.768,256,321.768z"/>
<path style="fill:#FF8900;" d="M255.997,60.833v129.4c36.33,0,65.77,29.44,65.77,65.77c0,36.32-29.44,65.76-65.77,65.76v129.4
	c107.79,0,195.17-87.38,195.17-195.16C451.167,148.214,363.786,60.833,255.997,60.833z"/>
<path style="fill:#FF127F;" d="M427.311,256c0-12.978-5.092-24.762-13.384-33.474c-5.709-5.997-8.106-14.297-6.474-22.414
	c2.37-11.792,0.394-24.476-6.525-35.455c-5.421-8.601-13.095-14.913-21.772-18.662c-5.9-2.55-10.6-7.25-13.149-13.149
	c-3.75-8.676-10.062-16.351-18.662-21.772c-10.979-6.92-23.663-8.896-35.455-6.525c-8.117,1.632-16.417-0.766-22.415-6.474
	c-8.712-8.292-20.496-13.384-33.474-13.384s-24.762,5.092-33.474,13.384c-5.997,5.709-14.297,8.106-22.415,6.474
	c-11.792-2.37-24.476-0.394-35.455,6.525c-8.601,5.421-14.913,13.095-18.662,21.772c-2.55,5.9-7.25,10.6-13.149,13.149
	c-8.676,3.75-16.351,10.062-21.772,18.662c-6.92,10.979-8.896,23.663-6.525,35.455c1.632,8.117-0.766,16.417-6.474,22.414
	c-8.293,8.712-13.384,20.496-13.384,33.474s5.092,24.762,13.384,33.474c5.708,5.997,8.106,14.297,6.474,22.414
	c-2.37,11.792-0.395,24.476,6.525,35.455c5.421,8.6,13.095,14.913,21.772,18.662c5.9,2.55,10.6,7.25,13.149,13.149
	c3.75,8.676,10.062,16.351,18.662,21.772c10.979,6.92,23.663,8.896,35.455,6.525c8.117-1.632,16.417,0.766,22.415,6.474
	c8.712,8.293,20.496,13.384,33.474,13.384s24.762-5.092,33.474-13.384c5.997-5.709,14.297-8.106,22.415-6.474
	c11.792,2.37,24.476,0.394,35.455-6.525c8.601-5.421,14.913-13.095,18.662-21.772c2.55-5.9,7.25-10.6,13.149-13.149
	c8.676-3.75,16.351-10.062,21.772-18.662c6.92-10.979,8.896-23.663,6.525-35.455c-1.632-8.117,0.766-16.417,6.474-22.414
	C422.219,280.762,427.311,268.978,427.311,256z M256,337.48c-45,0-81.48-36.48-81.48-81.48S211,174.52,256,174.52
	S337.48,211,337.48,256S301,337.48,256,337.48z"/>
<path style="fill:#B10853;" d="M427.306,256.003c0-12.98-5.09-24.77-13.38-33.48c-5.71-5.99-8.11-14.29-6.47-22.41
	c2.37-11.79,0.39-24.48-6.53-35.46c-5.42-8.6-13.09-14.91-21.77-18.66c-5.9-2.55-10.6-7.25-13.15-13.15
	c-3.75-8.68-10.06-16.35-18.66-21.77c-10.98-6.92-23.67-8.9-35.46-6.53c-8.12,1.64-16.42-0.76-22.41-6.47
	c-8.71-8.29-20.5-13.38-33.48-13.38v89.83c45,0,81.48,36.48,81.48,81.48s-36.48,81.48-81.48,81.48v89.83
	c12.98,0,24.77-5.09,33.48-13.39c5.99-5.71,14.29-8.1,22.41-6.47c11.79,2.37,24.48,0.39,35.46-6.53
	c8.6-5.42,14.91-13.09,18.66-21.77c2.55-5.9,7.25-10.6,13.15-13.15c8.68-3.75,16.35-10.06,21.77-18.66
	c6.92-10.98,8.9-23.66,6.53-35.46c-1.64-8.11,0.76-16.41,6.47-22.41C422.216,280.763,427.306,268.974,427.306,256.003z"/>
<rect x="249.641" y="115.628" transform="matrix(-0.7071 -0.7071 0.7071 -0.7071 342.7253 408.6468)" style="fill:#FFFFFF;" width="12.711" height="35.43"/>
<polygon style="fill:#FFEC97;" points="273.017,125.313 255.997,142.333 255.997,124.364 264.036,116.324 "/>
<rect x="249.642" y="360.937" transform="matrix(-0.7071 -0.7071 0.7071 -0.7071 169.2681 827.4158)" style="fill:#FFFFFF;" width="12.711" height="35.43"/>
<g>
	<polygon style="fill:#FFEC97;" points="273.017,370.624 255.997,387.644 255.997,369.674 264.036,361.634 	"/>
	
		<rect x="372.313" y="238.288" transform="matrix(0.7071 -0.7071 0.7071 0.7071 -70.1121 342.7408)" style="fill:#FFEC97;" width="12.711" height="35.43"/>
</g>
<rect x="126.992" y="238.29" transform="matrix(0.7071 -0.7071 0.7071 0.7071 -141.966 169.2728)" style="fill:#FFFFFF;" width="12.711" height="35.43"/>
<rect x="151.55" y="162.91" style="fill:#B6EFAB;" width="35.43" height="12.711"/>
<rect x="325.02" y="336.38" style="fill:#2AD827;" width="35.43" height="12.711"/>
<rect x="162.91" y="325.02" style="fill:#B6EFAB;" width="12.711" height="35.43"/>
<rect x="336.38" y="151.55" style="fill:#2AD827;" width="12.711" height="35.43"/>
<g>
</g>
<g>
</g>
<g>
</g>
<g>
</g>
<g>
</g>
<g>
</g>
<g>
</g>
<g>
</g>
<g>
</g>
<g>
</g>
<g>
</g>
<g>
</g>
<g>
</g>
<g>
</g>
<g>
</g>
</svg>
