<?xml version="1.0" encoding="UTF-8" standalone="no"?>
<svg
   xmlns:dc="http://purl.org/dc/elements/1.1/"
   xmlns:cc="http://creativecommons.org/ns#"
   xmlns:rdf="http://www.w3.org/1999/02/22-rdf-syntax-ns#"
   xmlns:svg="http://www.w3.org/2000/svg"
   xmlns="http://www.w3.org/2000/svg"
   xmlns:sodipodi="http://sodipodi.sourceforge.net/DTD/sodipodi-0.dtd"
   xmlns:inkscape="http://www.inkscape.org/namespaces/inkscape"
   viewBox="0 0 183.06856 138.98131"
   version="1.1"
   id="svg40"
   sodipodi:docname="intro-food.svg"
   width="183.06856"
   height="138.98131"
   inkscape:version="0.92.5 (2060ec1f9f, 2020-04-08)">
  <metadata
     id="metadata44">
    <rdf:RDF>
      <cc:Work
         rdf:about="">
        <dc:format>image/svg+xml</dc:format>
        <dc:type
           rdf:resource="http://purl.org/dc/dcmitype/StillImage" />
        <dc:title>macaron-cookies</dc:title>
      </cc:Work>
    </rdf:RDF>
  </metadata>
  <sodipodi:namedview
     pagecolor="#ffffff"
     bordercolor="#666666"
     borderopacity="1"
     objecttolerance="10"
     gridtolerance="10"
     guidetolerance="10"
     inkscape:pageopacity="0"
     inkscape:pageshadow="2"
     inkscape:window-width="1920"
     inkscape:window-height="1026"
     id="namedview42"
     showgrid="false"
     fit-margin-top="0"
     fit-margin-left="0"
     fit-margin-right="0"
     fit-margin-bottom="0"
     inkscape:zoom="2.6222222"
     inkscape:cx="133.42574"
     inkscape:cy="78.77056"
     inkscape:window-x="0"
     inkscape:window-y="27"
     inkscape:window-maximized="1"
     inkscape:current-layer="svg40" />
  <defs
     id="defs4">
    <style
       id="style2">.cls-1{fill:#824b3d;}.cls-2{fill:#fff7de;}.cls-3{fill:#9e5c4b;}.cls-4{fill:#ff99d6;}.cls-5{fill:#f47cc3;}.cls-6{fill:#82c60a;}.cls-7{fill:#51b224;}</style>
    <style
       id="style136">.cls-1{fill:#eaa74e;}.cls-2{fill:#edb469;}.cls-3{fill:#f47cc3;}.cls-4{fill:#ff99d6;}.cls-5{fill:#d45c9e;}.cls-6{fill:#ffce54;}.cls-7{fill:#27aae1;}.cls-8{fill:#ef4136;}</style>
  </defs>
  <title
     id="title6">macaron-cookies</title>
  <g
     id="macaron-cookies"
     transform="matrix(1.3328331,0,0,1.3520476,66.444795,-13.763845)">
    <g
       id="macaron-cookies-2"
       data-name="macaron-cookies">
      <path
         class="cls-1"
         d="m 45.47,44.9 v 0 c 17.92,0 22.18,-5.3 22.18,-11.26 H 23.29 c 0,5.96 4.25,11.26 22.18,11.26 z"
         id="path8"
         inkscape:connector-curvature="0"
         style="fill:#824b3d" />
      <path
         class="cls-2"
         d="m 68.76,27.54 a 2.4,2.4 0 0 1 -2.2,2.56 H 24.39 a 2.4,2.4 0 0 1 -2.2,-2.56 v 0 A 2.4,2.4 0 0 1 24.39,25 h 42.16 a 2.4,2.4 0 0 1 2.2,2.56 z"
         id="path10"
         inkscape:connector-curvature="0"
         style="fill:#fff7de" />
      <path
         class="cls-1"
         d="m 45.47,10.18 v 0 c -17.92,0 -22.18,5.3 -22.18,11.25 h 44.36 c 0,-5.95 -4.26,-11.25 -22.18,-11.25 z"
         id="path12"
         inkscape:connector-curvature="0"
         style="fill:#824b3d" />
      <path
         class="cls-3"
         d="M 69.61,23.33 A 1.8,1.8 0 0 0 68,21.41 H 23 a 1.8,1.8 0 0 0 -1.65,1.92 v 0 A 1.8,1.8 0 0 0 23,25.25 h 45 a 1.8,1.8 0 0 0 1.65,-1.92 z"
         id="path14"
         inkscape:connector-curvature="0"
         style="fill:#9e5c4b" />
      <path
         class="cls-3"
         d="M 21.33,31.76 A 1.8,1.8 0 0 0 23,33.68 h 45 a 1.8,1.8 0 0 0 1.65,-1.92 v 0 A 1.8,1.8 0 0 0 68,29.83 H 23 a 1.8,1.8 0 0 0 -1.65,1.92 z"
         id="path16"
         inkscape:connector-curvature="0"
         style="fill:#9e5c4b" />
      <path
         class="cls-4"
         d="m 26.64,75.75 v 0 c 17.92,0 22.18,-5.3 22.18,-11.26 H 4.46 c 0,5.96 4.26,11.26 22.18,11.26 z"
         id="path18"
         inkscape:connector-curvature="0"
         style="fill:#ff99d6" />
      <path
         class="cls-2"
         d="M 49.93,58.39 A 2.4,2.4 0 0 1 47.72,61 H 5.56 a 2.4,2.4 0 0 1 -2.2,-2.56 v 0 a 2.4,2.4 0 0 1 2.2,-2.56 h 42.16 a 2.4,2.4 0 0 1 2.2,2.56 z"
         id="path20"
         inkscape:connector-curvature="0"
         style="fill:#fff7de" />
      <path
         class="cls-4"
         d="m 26.64,41 v 0 C 8.72,41 4.46,46.33 4.46,52.29 H 48.82 C 48.82,46.33 44.56,41 26.64,41 Z"
         id="path22"
         inkscape:connector-curvature="0"
         style="fill:#ff99d6" />
      <path
         class="cls-5"
         d="m 50.78,54.18 a 1.8,1.8 0 0 0 -1.65,-1.92 h -45 A 1.8,1.8 0 0 0 2.5,54.18 v 0 a 1.8,1.8 0 0 0 1.65,1.92 h 45 a 1.8,1.8 0 0 0 1.65,-1.92 z"
         id="path24"
         inkscape:connector-curvature="0"
         style="fill:#f47cc3" />
      <path
         class="cls-5"
         d="m 2.5,62.6 a 1.8,1.8 0 0 0 1.65,1.92 h 45 A 1.8,1.8 0 0 0 50.8,62.6 v 0 a 1.8,1.8 0 0 0 -1.65,-1.92 h -45 A 1.8,1.8 0 0 0 2.5,62.6 Z"
         id="path26"
         inkscape:connector-curvature="0"
         style="fill:#f47cc3" />
      <path
         class="cls-6"
         d="m 53.42,71.25 v 0 C 67.41,82.46 74,81 77.77,76.33 L 43.15,48.6 C 39.43,53.25 39.43,60 53.42,71.25 Z"
         id="path28"
         inkscape:connector-curvature="0"
         style="fill:#82c60a" />
      <path
         class="cls-2"
         d="m 82.45,72.26 a 2.4,2.4 0 0 1 -3.32,0.62 L 46.22,46.52 A 2.4,2.4 0 0 1 46.1,43.14 v 0 a 2.4,2.4 0 0 1 3.32,-0.62 l 32.91,26.37 a 2.4,2.4 0 0 1 0.12,3.38 z"
         id="path30"
         inkscape:connector-curvature="0"
         style="fill:#fff7de" />
      <path
         class="cls-6"
         d="m 75.13,44.16 v 0 C 61.14,33 54.5,34.43 50.78,39.08 L 85.4,66.8 C 89.12,62.16 89.12,55.36 75.13,44.16 Z"
         id="path32"
         inkscape:connector-curvature="0"
         style="fill:#82c60a" />
      <path
         class="cls-7"
         d="M 85.75,69.51 A 1.8,1.8 0 0 0 85.66,67 L 50.56,38.86 a 1.8,1.8 0 0 0 -2.49,0.47 v 0 a 1.8,1.8 0 0 0 0.09,2.53 L 83.26,70 a 1.8,1.8 0 0 0 2.49,-0.47 z"
         id="path34"
         inkscape:connector-curvature="0"
         style="fill:#51b224" />
      <path
         class="cls-7"
         d="m 42.8,45.9 a 1.8,1.8 0 0 0 0.09,2.53 L 78,76.55 a 1.8,1.8 0 0 0 2.49,-0.47 v 0 A 1.8,1.8 0 0 0 80.4,73.55 L 45.29,45.43 A 1.8,1.8 0 0 0 42.8,45.9 Z"
         id="path36"
         inkscape:connector-curvature="0"
         style="fill:#51b224" />
    </g>
  </g>
  <g
     id="donut"
     transform="matrix(1.0476137,-0.00670721,0.0097899,1.0728453,-3.0686528,29.332634)">
    <g
       data-name="donut"
       id="donut-2">
      <path
         id="path142"
         d="M 87.42,44.14 A 42.46,42.46 0 0 0 2.51,45 c 0,0.18 0,0.36 0,0.53 v 0 c 0,0.13 0,0.27 0,0.4 0,0.32 0,0.65 0,1 0,0.35 0,0.63 0.07,1 0.07,0.37 0,0.63 0.07,0.94 v 0 c 0,0.4 0.06,0.8 0.11,1.2 a 42.46,42.46 0 0 0 83.74,3.57 44.64,44.64 0 0 0 0.79,-6 c 0,-0.49 0,-1 0,-1.47 v 0 c 0,-0.18 0.06,-0.36 0.06,-0.54 v 0 c 0,-0.17 0,-0.35 0,-0.55 0,-0.2 0.08,-0.66 0.07,-0.94 z M 45,63.15 A 18.14,18.14 0 0 1 26.85,45 c 0,-0.3 0,-0.6 0,-0.9 A 18.13,18.13 0 1 1 45,63.15 Z"
         class="cls-1"
         inkscape:connector-curvature="0"
         style="fill:#eaa74e" />
      <path
         id="path144"
         d="m 81.18,44.46 v -0.2 A 36.196891,36.196891 0 0 0 8.79,45 v 0.62 0.21 c 0,0.27 0,0.54 0,0.8 v 0.72 L 9,48.69 c 0,0.2 0,0.4 0.06,0.62 a 36.2,36.2 0 0 0 71.39,3 35.58,35.58 0 0 0 0.67,-5.12 c 0,-0.38 0,-0.76 0,-1.14 0,0 0,-0.57 0,-0.67 v -1 z M 45,69.4 A 24.42,24.42 0 0 1 20.6,45 c 0,-0.39 0,-0.79 0,-1.18 A 24.39,24.39 0 1 1 45,69.4 Z"
         class="cls-2"
         inkscape:connector-curvature="0"
         style="fill:#edb469" />
      <path
         id="path146"
         d="M 87.43,45.55 V 45 c 0,-0.29 0,-0.58 0,-0.86 A 42.447178,42.447178 0 0 0 2.54,45 v 0.57 a 4,4 0 0 0 0,0.4 c 0,0.32 0,0.65 0,1 0,0.35 0,0.63 0.06,1 0.06,0.37 0,0.63 0.07,0.94 a 10.61,10.61 0 0 0 7.59,2 1.86,1.86 0 0 1 0.24,0.92 V 62 a 2.75,2.75 0 0 0 5.5,0 v -1.53 h 0.06 v -3.23 a 2,2 0 0 1 3.91,0 v 6.34 a 2.72,2.72 0 0 0 2.71,2.71 v 0 A 2.72,2.72 0 0 0 25.4,63.58 V 43.93 c 0.5,-0.34 1,-0.68 1.52,-1 0,-0.28 0.07,-0.56 0.11,-0.83 0.1,-0.56 0.21,-1.11 0.35,-1.64 0.07,-0.28 0.15,-0.54 0.24,-0.8 0.09,-0.26 0.17,-0.53 0.26,-0.79 a 7.69,7.69 0 0 1 0.29,-0.77 6.6,6.6 0 0 1 0.32,-0.73 v 0 c 0.07,-0.16 0.14,-0.31 0.22,-0.47 0.08,-0.16 0.14,-0.25 0.2,-0.37 l 0.28,-0.5 0.08,-0.15 c 0.11,-0.17 0.21,-0.33 0.31,-0.49 l 0.14,-0.22 0.42,-0.6 c 0.13,-0.2 0.28,-0.4 0.42,-0.58 l 0.17,-0.2 0.4,-0.5 A 18.81,18.81 0 0 1 34.78,30 h 0.06 q 0.65,-0.44 1.34,-0.81 c 0.24,-0.14 0.47,-0.26 0.72,-0.39 l 0.74,-0.34 a 5.11,5.11 0 0 1 0.62,-0.26 9.23,9.23 0 0 1 1.06,-0.39 4.86,4.86 0 0 1 0.47,-0.15 l 0.46,-0.13 0.32,-0.08 0.45,-0.1 a 4.17,4.17 0 0 1 0.51,-0.1 c 0.24,-0.06 0.47,-0.1 0.71,-0.13 L 43.12,27 v 0 h 0.58 c 0.42,0 0.84,0 1.26,0 h 0.93 c 0.36,0 0.74,0 1.1,0.1 l 0.71,0.09 h 0.07 l 0.69,0.13 a 2.89,2.89 0 0 1 0.35,0.08 l 0.57,0.12 0.24,0.06 0.46,0.13 c 0.19,0 0.37,0.11 0.57,0.17 a 15.58,15.58 0 0 1 1.53,0.58 c 0.48,0.21 1,0.44 1.42,0.69 v 0 c 0.47,0.26 0.92,0.52 1.35,0.81 a 18.5,18.5 0 0 1 3,2.52 18.26,18.26 0 0 1 4.95,9.82 v 0 a 29,29 0 0 1 5.84,1.82 V 53 a 2.32,2.32 0 0 0 2.32,2.34 v 0 A 2.33,2.33 0 0 0 73.45,53 v -3.17 a 2.31,2.31 0 0 1 1.79,-2.1 2.08,2.08 0 0 1 0.5,-0.06 h 0.06 a 2.27,2.27 0 0 1 2.06,1.33 2.22,2.22 0 0 1 0.26,1 v 2.84 0 7.43 a 2.31,2.31 0 0 0 2.31,2.33 h 0.06 a 2.33,2.33 0 0 0 2.32,-2.33 v -1.93 h 0.06 V 55.5 a 2.32,2.32 0 0 1 2.32,-2.32 v 0 a 2.28,2.28 0 0 1 1.35,0.43 44.64,44.64 0 0 0 0.79,-6 3.26,3.26 0 0 0 0,-0.38 c 0,-0.37 0,-0.72 0,-1.1 v -0.58 z"
         class="cls-3"
         inkscape:connector-curvature="0"
         style="fill:#f47cc3" />
      <path
         id="path148"
         d="M 87.43,45.55 V 45 c 0,-0.29 0,-0.58 0,-0.86 A 42.447178,42.447178 0 0 0 2.54,45 v 0.57 a 4,4 0 0 0 0,0.4 c 0,0.23 0,0.46 0,0.68 a 42.44,42.44 0 0 1 84.83,0.47 c 0,-0.33 0,-0.66 0,-1 v -0.58 z"
         class="cls-4"
         inkscape:connector-curvature="0"
         style="fill:#ff99d6" />
      <path
         id="path150"
         d="m 22.74,63.94 v 0 A 2.72,2.72 0 0 1 20,61.23 v -6.34 a 2,2 0 0 0 -3.91,0 v 2.35 a 2,2 0 0 1 3.91,0 v 6.34 a 2.72,2.72 0 0 0 2.71,2.71 v 0 a 2.72,2.72 0 0 0 2.72,-2.71 v -2.35 a 2.72,2.72 0 0 1 -2.69,2.71 z"
         class="cls-5"
         inkscape:connector-curvature="0"
         style="fill:#d45c9e" />
      <path
         id="path152"
         d="m 16,59.67 a 2.74,2.74 0 0 1 -5.47,0 V 49.39 a 1.88,1.88 0 0 0 -0.24,-0.92 10.62,10.62 0 0 1 -7.59,-2 c 0,-0.31 0,-0.63 -0.07,-0.94 -0.07,-0.31 0,-0.63 -0.06,-1 -0.06,-0.37 0,-0.42 0,-0.62 0,0.35 0,0.69 0,1 v 0.57 a 4,4 0 0 0 0,0.4 c 0,0.32 0,0.65 0,1 0,0.35 0,0.63 0.06,1 0.06,0.37 0,0.63 0.07,0.94 a 10.61,10.61 0 0 0 7.59,2 1.86,1.86 0 0 1 0.24,0.92 V 62 A 2.74,2.74 0 0 0 16,62 v -1.53 h 0.06 V 58.13 H 16 Z"
         class="cls-5"
         inkscape:connector-curvature="0"
         style="fill:#d45c9e" />
      <path
         id="path154"
         d="m 71.12,53 v 0 A 2.32,2.32 0 0 1 68.8,50.67 V 53 a 2.32,2.32 0 0 0 2.32,2.34 v 0 A 2.33,2.33 0 0 0 73.45,53 V 50.63 A 2.33,2.33 0 0 1 71.12,53 Z"
         class="cls-5"
         inkscape:connector-curvature="0"
         style="fill:#d45c9e" />
      <path
         id="path156"
         d="m 27,40.57 c 0,0 -1,0.67 -1.52,1 v 2.34 c 0.5,-0.34 1,-0.68 1.52,-1 0,-0.28 0.07,-0.56 0.11,-0.83 0.1,-0.56 0.21,-1.11 0.35,-1.64 v -0.13 z"
         class="cls-5"
         inkscape:connector-curvature="0"
         style="fill:#d45c9e" />
      <path
         id="path158"
         d="m 62.41,40 c 0,0 0.41,1.76 0.49,2.34 v 0 a 29,29 0 0 1 5.84,1.82 V 41.78 A 34.75,34.75 0 0 0 62.41,40 Z"
         class="cls-5"
         inkscape:connector-curvature="0"
         style="fill:#d45c9e" />
      <path
         id="path160"
         d="m 82.8,57.93 a 2.32,2.32 0 0 1 -2.32,2.32 h -0.06 a 2.31,2.31 0 0 1 -2.31,-2.32 v 2.34 a 2.31,2.31 0 0 0 2.31,2.33 h 0.06 a 2.33,2.33 0 0 0 2.32,-2.33 v -1.93 h 0.06 V 56 H 82.8 Z"
         class="cls-5"
         inkscape:connector-curvature="0"
         style="fill:#d45c9e" />
      <path
         id="path162"
         d="m 87.43,45 c 0,-0.22 0,-0.44 0,-0.67 0,0.18 0,0.36 0,0.54 a 3.24,3.24 0 0 1 0,0.38 44.36,44.36 0 0 1 -0.79,6 2.35,2.35 0 0 0 -1.35,-0.43 v 0 a 2.32,2.32 0 0 0 -2.32,2.32 v 2.36 a 2.32,2.32 0 0 1 2.32,-2.32 v 0 a 2.28,2.28 0 0 1 1.35,0.43 44.64,44.64 0 0 0 0.79,-6 3.26,3.26 0 0 0 0,-0.38 c 0,-0.37 0,-0.72 0,-1.1 z"
         class="cls-5"
         inkscape:connector-curvature="0"
         style="fill:#d45c9e" />
      <path
         id="path164"
         d="m 78.12,47.65 a 2.19,2.19 0 0 0 -0.26,-1 2.27,2.27 0 0 0 -2.06,-1.29 h -0.06 a 2,2 0 0 0 -0.5,0.06 2.3,2.3 0 0 0 -1.79,2.1 v 2.34 a 2.31,2.31 0 0 1 1.79,-2.1 2.08,2.08 0 0 1 0.5,-0.06 h 0.06 a 2.27,2.27 0 0 1 2.06,1.3 2.22,2.22 0 0 1 0.26,1 z"
         class="cls-5"
         inkscape:connector-curvature="0"
         style="fill:#d45c9e" />
      <path
         id="path166"
         d="m 59,24.61 a 1.08,1.08 0 0 1 -1.43,0.5 L 52,22.46 a 1.0711909,1.0711909 0 0 1 0.93,-1.93 l 5.5,2.66 A 1.07,1.07 0 0 1 59,24.61 Z"
         class="cls-6"
         inkscape:connector-curvature="0"
         style="fill:#ffce54" />
      <path
         id="path168"
         d="m 39.1,14 a 1.09,1.09 0 0 1 -0.47,1.44 l -5.45,2.8 a 1.0735455,1.0735455 0 0 1 -1,-1.9 l 5.45,-2.8 A 1.08,1.08 0 0 1 39.1,14 Z"
         class="cls-7"
         inkscape:connector-curvature="0"
         style="fill:#27aae1" />
      <path
         id="path170"
         d="m 23.18,30.91 a 1.07,1.07 0 0 1 -1.51,-0.07 l -4.12,-4.52 a 1.07,1.07 0 0 1 0.07,-1.52 1.08,1.08 0 0 1 1.52,0.07 l 4.11,4.53 a 1.06,1.06 0 0 1 -0.07,1.51 z"
         class="cls-6"
         inkscape:connector-curvature="0"
         style="fill:#ffce54" />
      <path
         id="path172"
         d="m 22.62,17.81 a 1.06,1.06 0 0 1 -0.48,1.43 l -5.53,2.65 A 1.07,1.07 0 1 1 15.69,20 l 5.52,-2.65 a 1.05,1.05 0 0 1 1.41,0.46 z"
         class="cls-8"
         inkscape:connector-curvature="0"
         style="fill:#ef4136" />
      <path
         id="path174"
         d="M 14.77,39.23 A 1.07,1.07 0 0 1 13.7,40.3 H 7.57 A 1.07,1.07 0 0 1 6.52,39.23 1.06,1.06 0 0 1 7.57,38.16 h 6.13 a 1.06,1.06 0 0 1 1.07,1.07 z"
         class="cls-8"
         inkscape:connector-curvature="0"
         style="fill:#ef4136" />
      <path
         id="path176"
         d="M 69.8,22.52 A 1.08,1.08 0 0 1 70.25,24 l -2.85,5.38 a 1.07,1.07 0 1 1 -1.89,-1 L 68.35,23 a 1.08,1.08 0 0 1 1.45,-0.48 z"
         class="cls-8"
         inkscape:connector-curvature="0"
         style="fill:#ef4136" />
      <path
         id="path178"
         d="m 64.53,11.38 a 1.06,1.06 0 0 1 -1.07,1.07 h -6.12 a 1.07,1.07 0 1 1 0,-2.14 h 6.11 a 1.06,1.06 0 0 1 1.08,1.07 z"
         class="cls-7"
         inkscape:connector-curvature="0"
         style="fill:#27aae1" />
    </g>
  </g>
  <g
     id="g321"
     transform="matrix(0.20657963,0,0,0.17908498,55.632626,47.289805)">
    <path
       id="path289"
       d="m 397,197 20,315 c 1.793,0 3.577,-0.321 5.267,-0.955 0.406,-0.1 0.915,-0.213 1.514,-0.352 8.292,-1.917 30.318,-7.01 50.251,-23.396 C 499.226,466.588 512,436.207 512,397 V 197 Z"
       inkscape:connector-curvature="0"
       style="fill:#ff7038" />
    <path
       id="path291"
       d="m 0,197 v 160 c 0,6.383 4.039,12.066 10.066,14.165 l 402,140 c 1.604,0.56 3.271,0.835 4.933,0.835 H 417 V 197 Z"
       inkscape:connector-curvature="0"
       style="fill:#ffde46" />
    <path
       id="path293"
       d="m 237,450.197 175.066,60.968 c 1.604,0.56 3.271,0.835 4.933,0.835 H 417 V 197 H 237 Z"
       inkscape:connector-curvature="0"
       style="fill:#ff9d21" />
    <path
       id="path295"
       d="M 0,287.66 417,432.884 V 401.116 L 0,255.893 Z"
       inkscape:connector-curvature="0"
       style="fill:#f5f0eb" />
    <path
       id="path297"
       d="m 237,370.197 180,62.687 V 401.116 L 237,338.43 Z"
       inkscape:connector-curvature="0"
       style="fill:#ebe1dc" />
    <path
       id="path299"
       d="m 424.615,44.077 c -3.804,-2.242 -8.402,-2.693 -12.57,-1.235 -20.274,7.096 -98.603,34.355 -181.529,63.216 C 136.139,138.903 38.548,172.867 10.045,182.842 4.022,184.95 -0.008,190.638 0,197.019 0.008,203.4 4.052,209.078 10.08,211.17 L 272,302.386 V 377 c 0,19.33 15.67,35 35,35 19.33,0 35,-15.67 35,-35 v -50.236 l 70.045,24.394 c 4.166,1.459 8.766,1.007 12.57,-1.235 C 428.184,347.82 512,297.274 512,197 512,192.858 511.007,94.986 424.615,44.077 Z"
       inkscape:connector-curvature="0"
       style="fill:#ffef7b" />
    <path
       id="path301"
       d="m 424.615,44.077 c -3.804,-2.242 -8.402,-2.693 -12.57,-1.235 C 392.3,49.752 317.492,75.788 237,103.801 v 186.396 l 35,12.189 V 377 c 0,19.33 15.67,35 35,35 19.33,0 35,-15.67 35,-35 v -50.236 l 70.045,24.394 c 4.166,1.459 8.766,1.007 12.57,-1.235 C 428.184,347.82 512,297.274 512,197 512,192.858 511.007,94.986 424.615,44.077 Z"
       inkscape:connector-curvature="0"
       style="fill:#ffde46" />
    <g
       id="g311"
       style="fill:#ff9d21">
      <circle
         id="circle303"
         r="15"
         cy="132"
         cx="412" />
      <circle
         id="circle305"
         r="15"
         cy="202"
         cx="432" />
      <circle
         id="circle307"
         r="15"
         cy="262"
         cx="382" />
      <circle
         id="circle309"
         r="15"
         cy="192"
         cx="352" />
    </g>
    <path
       id="path313"
       d="m 237,90.003 c -8.284,0 -15,-6.716 -15,-15 0,-18.954 -10.532,-35.995 -27.485,-44.473 l -4.223,-2.111 c -7.41,-3.704 -10.413,-12.715 -6.708,-20.124 3.706,-7.409 12.718,-10.412 20.124,-6.708 l 4.223,2.111 C 235.114,17.29 252,44.612 252,75.003 c 0,8.284 -6.716,15 -15,15 z"
       inkscape:connector-curvature="0"
       style="fill:#beda4b" />
    <path
       id="path315"
       d="m 237,90.002 c 8.284,0 15,-6.716 15,-15 0,-17.179 -5.399,-33.375 -15,-46.668 z"
       inkscape:connector-curvature="0"
       style="fill:#14cd6e" />
    <path
       id="path317"
       d="m 237,190 c -35.841,0 -65,-29.159 -65,-65 0,-35.841 29.159,-65 65,-65 35.841,0 65,29.159 65,65 0,35.841 -29.159,65 -65,65 z"
       inkscape:connector-curvature="0"
       style="fill:#ff4169" />
    <path
       id="path319"
       d="M 302,125 C 302,89.159 272.841,60 237,60 v 130 c 35.841,0 65,-29.159 65,-65 z"
       inkscape:connector-curvature="0"
       style="fill:#cf3160" />
  </g>
</svg>
