<svg id="icons" enable-background="new 0 0 64 64" height="512" viewBox="0 0 64 64" width="512" xmlns="http://www.w3.org/2000/svg"><path d="m4.006 40.503v4h-1c-1.111 0-2-.899-2-2 0-1.109.889-2 2-2z" fill="#ed5565"/><path d="m10.006 55.503h8c0 2.21-1.791 4-4 4-2.201 0-4-1.79-4-4z" fill="#e6e9ed"/><path d="m18.006 55.503h4c0 4.42-3.58 8-8 8-4.41 0-8-3.58-8-8h4c0 2.21 1.799 4 4 4 2.209 0 4-1.79 4-4z" fill="#545c66"/><path d="m50.006 55.503c0 2.21 1.789 4 4 4 2.209 0 4-1.79 4-4v-.01h4v.01c0 4.42-3.58 8-8 8-4.422 0-8-3.58-8-8v-.01h4z" fill="#545c66"/><path d="m54.005 14.493c.55 0 1 .45 1 1v6.01c0 .55-.45 1-1 1h-1c-.55 0-1-.45-1-1v-6.01c0-.55.45-1 1-1z" fill="#e6e9ed"/><path d="m32.007 31.503c.55 0 1 .45 1 1v1.99c0 .55-.45 1-1 1h-23.001c-.55 0-1-.45-1-1v-1.99c0-.55.45-1 1-1z" fill="#656d78"/><path d="m6.006 55.503c-.55 0-1-.45-1-1v-5.002c0-.55.225-1 .5-1s.95 0 1.5 0h2 2 6 2 2 1.5s.5.45.5 1v5.002c0 .55-.45 1-1 1z" fill="#656d78"/><path d="m37.006 16.503c1.1 0 2 .891 2 2 0 1.101-.9 2-2 2-1.111 0-2-.899-2-2 0-1.109.889-2 2-2z" fill="#656d78"/><path d="m50.006 55.493h-4l-2.75.01c5.42-.12 9.77-4.55 9.77-10 5.51.01 9.969 4.471 9.969 9.99h-.988-4z" fill="#7bb542"/><path d="m46.006 20.503c1.1 0 2-.899 2-2 0-1.109-.9-2-2-2h-5.58c.779-1.77 2.539-3 4.59-3v-.01h6.989l1.001 1v8.01l-1.001 1h-1.979-5.01c-2.051 0-3.82-1.229-4.59-3z" fill="#a0d468"/><path d="m40.426 16.503h5.58c1.1 0 2 .891 2 2 0 1.101-.9 2-2 2h-5.58-3.42c1.1 0 2-.899 2-2 0-1.109-.9-2-2-2z" fill="#545c66"/><path d="m53.025 45.503c0 5.45-4.35 9.88-9.77 10-.08 0-.15 0-.23 0h-15.02c-2.762 0-5-2.24-5-5h9 11.02c2.76 0 5-2.24 5-5h-.02l-2.99-22h5.01z" fill="#8cc152"/><path d="m54.006 59.503c-2.211 0-4-1.79-4-4v-.01h8v.01c0 2.21-1.791 4-4 4z" fill="#e6e9ed"/><path d="m33.007 36.493v14.01h-10.001-18l-1-1.002v-4.998-4-1c0-2.21 1.789-4 4-4v-.01h24z" fill="#a0d468"/><circle cx="5.006" cy="49.501" fill="#a0d468" r="1"/><circle cx="32.007" cy="36.493" fill="#a0d468" r="1"/><path d="m52.005 23.502c-.553 0-1-.447-1-1v-8.008c0-.553.447-1 1-1s1 .447 1 1v8.008c0 .553-.447 1-1 1z" fill="#a0d468"/><path d="m27 6.497c-.553 0-1-.447-1-1 0-1.654-1.346-3-3-3s-3 1.346-3 3c0 .553-.447 1-1 1s-1-.447-1-1c0-2.756 2.243-5 5-5s5 2.244 5 5c0 .553-.447 1-1 1z" fill="#ccd1d9"/><path d="m19 10.497c-.553 0-1-.448-1-1v-4c0-.552.447-1 1-1s1 .448 1 1v4c0 .552-.447 1-1 1z" fill="#ccd1d9"/><path d="m27 10.497c-.553 0-1-.448-1-1v-4c0-.552.447-1 1-1s1 .448 1 1v4c0 .552-.447 1-1 1z" fill="#ccd1d9"/><path d="m23 6.497c-.553 0-1-.447-1-1 0-1.654-1.346-3-3-3s-3 1.346-3 3c0 .553-.447 1-1 1s-1-.447-1-1c0-2.756 2.243-5 5-5s5 2.244 5 5c0 .553-.447 1-1 1z" fill="#e6e9ed"/><path d="m15 10.497c-.553 0-1-.448-1-1v-4c0-.552.447-1 1-1s1 .448 1 1v4c0 .552-.447 1-1 1z" fill="#e6e9ed"/><path d="m23 10.497c-.553 0-1-.448-1-1v-4c0-.552.447-1 1-1s1 .448 1 1v4c0 .552-.447 1-1 1z" fill="#e6e9ed"/><path d="m32.006 8.499c-.55 0-1.45 0-2 0h-2c-.55 0-1.45 0-2 0h-2c-.55 0-1.45 0-2 0h-2c-.55 0-1.45 0-2 0h-5c-.55 0-1 .449-1 1v20.99c0 .549.45 1 1 1h19c.55 0 1-.451 1-1v-20.99c0-.551-.45-1-1-1z" fill="#f7c292"/><path d="m28.006 8.499c-.55 0-1.45 0-2 0h-2c-.55 0-1.45 0-2 0h-2c-.55 0-1.45 0-2 0h-2c-.55 0-1.45 0-2 0h-5c-.55 0-1 .449-1 1v20.99c0 .549.45 1 1 1h19c.55 0 1-.451 1-1v-20.99c0-.551-.45-1-1-1z" fill="#ffd2a6"/><g fill="#545c66"><path d="m15.507 28.501c-.553 0-1-.447-1-1v-8c0-.553.447-1 1-1s1 .447 1 1v8c0 .553-.447 1-1 1z"/><path d="m13.007 19.499c-.553 0-1-.447-1-1v-4.002c0-.553.447-1 1-1s1 .447 1 1v4.002c0 .553-.447 1-1 1z"/><path d="m18.008 19.499c-.553 0-1-.447-1-1v-4.002c0-.553.447-1 1-1s1 .447 1 1v4.002c0 .553-.447 1-1 1z"/><path d="m21.007 28.501c-.553 0-1-.447-1-1v-13.006c0-.553.447-1 1-1s1 .447 1 1v13.006c0 .553-.447 1-1 1z"/></g><path d="m21.001 13.495c-.553 0-1 .447-1 1v7h.006c.001.553.447 1 1 1h3c.553 0 1-.447 1-1v-3.994c0-2.209-1.797-4.006-4.006-4.006z" fill="#656d78"/><path d="m15.506 17.495c-.553 0-1-.447-1-1v-1.998c0-.553.447-1 1-1s1 .447 1 1v1.998c0 .553-.447 1-1 1z" fill="#545c66"/><path d="m18.008 16.497h-5.001c-.553 0-1 .447-1 1v1c0 .002-.001.002-.001.004 0 1.102.896 1.998 1.997 1.998h2.993c.004 0 .007.002.01.002 1.104 0 2.002-.898 2.002-2.002v-1.002c0-.553-.447-1-1-1z" fill="#656d78"/></svg>